# xmcd
# Copyright (C) 1995-1998 Ti Kan
#
# Track frame offsets:
#       150
#       12515
#       29627
#       50322
#
# Disc length: 930 seconds
#
# Revision: 0
# Processed by: cddbd v1.5.2PL0 Copyright (c) Steve Scherf et al.
# Submitted via: CD-Import v1.0
#
DISCID=2d03a004
DTITLE=Douleur D'avion - Promo
DYEAR=08
DGENRE=
TTITLE0=Comme Dans Un Film
TTITLE1=Vida Mia
TTITLE2=Curaçao De Bacalao
TTITLE3=Bailar Con Los Locos
EXTD=
EXTT0=
EXTT1=
EXTT2=
EXTT3=
PLAYORDER=
